# xmcd CD database file
#
# Track frame offsets:
#	150
#	16980
#	29855
#	46400
#	60102
#	72967
#	88525
#	99840
#	117560
#	135867
#	147990
#	166415
#	183860
#	204817
#	231987
#	257272
#	292762
#
# Disc length: 4478 seconds
#
# Revision: 2
# Processed by: cddbd v1.5.2PL0 Copyright (c) Steve Scherf et al.
# Submitted via: CDex 1.70beta2
#
DISCID=db117c11
DTITLE=Chet Baker - Career 1952-1988 - Shout Factory - D2
DYEAR=1955
DGENRE=Jazz
TTITLE0=Let's Get Lost (Chet Baker)
TTITLE1=The Thrill is Gone (Chet Baker)
TTITLE2=Everything Happens to Me (Chet Baker)
TTITLE3=That Old Feeling (Chet Baker)
TTITLE4=It Could Happen to You (Chet Baker)
TTITLE5=My Heart Stood Still (Chet Baker)
TTITLE6=The Song is You (Chet Baker)
TTITLE7=Chetty's Lullaby (Chet Baker with Ennio Morricone and His Orchestra)
TTITLE8=Born to Be Blue (Chet Baker)
TTITLE9=The Touch of Your Lips (Chet Baker)
TTITLE10=With a Song in My Heart (Chet Baker)
TTITLE11=What'll I Do (Chet Baker)
TTITLE12=If You Could See Me Now (Chet Baker)
TTITLE13=But Not for Me (Chet Baker)
TTITLE14=There Will Never Be Another You (Chet Baker)
TTITLE15=Almost Blue (Chet Baker)
TTITLE16=My Funny Valentine (Chet Baker)
EXTD=YEAR: 1955
EXTT0=
EXTT1=
EXTT2=
EXTT3=
EXTT4=
EXTT5=
EXTT6=
EXTT7=
EXTT8=
EXTT9=
EXTT10=
EXTT11=
EXTT12=
EXTT13=
EXTT14=
EXTT15=
EXTT16=
PLAYORDER=
